<svg width="1081" height="1094" viewBox="0 0 1081 1094" fill="none" xmlns="http://www.w3.org/2000/svg">
<path d="M1062.74 615.463L1053.41 610.063C1056.85 586.254 1059.55 562.445 1060.29 538.39L1069.61 543.79C1068.88 567.845 1066.18 591.654 1062.74 615.463Z" fill="#858585"/>
<path d="M1069.61 543.79L1060.29 538.39C1059.55 521.454 1059.06 504.763 1057.59 488.072C1056.36 471.626 1054.64 454.935 1051.94 438.735C1042.61 383.508 1025.43 331.227 999.658 282.136C968.731 222.981 928.231 172.172 878.404 129.463C854.349 108.845 828.577 90.6815 801.331 75.2179L810.659 80.6179C837.904 96.0815 863.677 114.245 887.731 134.863C937.804 177.572 978.304 228.627 1008.99 287.536C1034.51 336.627 1051.94 388.908 1061.27 444.136C1063.97 460.335 1065.69 477.026 1066.91 493.472C1068.39 510.163 1068.88 526.854 1069.61 543.79Z" fill="#858585"/>
<path d="M273.605 1021.93L264.277 1016.53C277.041 1023.9 297.659 1034.7 324.905 1045.74L334.232 1051.14C306.986 1040.1 286.614 1029.3 273.605 1021.93Z" fill="#9E9E9E"/>
<path d="M334.232 1051.39L324.904 1045.99C331.286 1048.69 338.159 1051.39 345.032 1053.84C360.986 1059.73 374.241 1064.64 386.022 1068.33L395.35 1073.73C383.568 1070.04 370.313 1065.13 354.359 1059.24C347.241 1056.54 340.613 1054.09 334.232 1051.39Z" fill="#A3A3A3"/>
<path d="M395.595 1073.73L386.268 1068.33C402.959 1073.48 416.95 1076.18 432.168 1075.69C435.113 1075.69 437.813 1075.44 440.759 1075.2L450.086 1080.6C447.141 1080.84 444.195 1081.09 441.495 1081.09C426.032 1081.58 412.041 1078.88 395.595 1073.73Z" fill="#9E9E9E"/>
<path d="M450.086 1080.6L440.759 1075.2C441.495 1075.2 442.231 1074.95 442.968 1074.95C456.713 1073.48 468.986 1070.04 472.177 1069.06L481.504 1074.46C478.313 1075.44 466.04 1078.88 452.295 1080.35C451.559 1080.6 450.822 1080.6 450.086 1080.6Z" fill="#999999"/>
<path d="M481.259 1074.46L471.932 1069.06C481.75 1066.12 490.095 1062.68 497.705 1059L507.032 1064.4C499.668 1068.08 491.077 1071.52 481.259 1074.46C481.505 1074.46 481.505 1074.46 481.259 1074.46Z" fill="#949494"/>
<path d="M507.277 1064.4L497.95 1059C510.222 1052.86 520.286 1046.23 529.613 1040.1C552.686 1024.88 575.513 1009.17 598.34 993.708C620.677 978.735 643.504 965.235 667.068 953.699L676.395 959.099C652.831 970.635 629.758 984.135 607.668 999.108C584.595 1014.57 562.013 1030.28 538.94 1045.5C529.613 1051.63 519.55 1058.26 507.277 1064.4Z" fill="#8F8F8F"/>
<path d="M676.886 958.853L667.559 953.453C695.05 939.953 723.522 928.908 752.977 920.072L762.304 925.472C732.849 934.308 704.377 945.353 676.886 958.853Z" fill="#949494"/>
<path d="M762.304 925.717L752.977 920.317C753.959 920.072 755.186 919.581 756.168 919.335C783.659 911.481 811.149 904.363 838.64 896.999C847.477 894.544 856.313 892.09 865.149 889.635L874.477 895.035C865.64 897.735 856.804 899.944 847.968 902.399C820.477 909.763 792.74 916.635 765.495 924.735C764.268 924.981 763.286 925.226 762.304 925.717Z" fill="#999999"/>
<path d="M874.477 895.035L865.149 889.635C879.631 885.462 893.867 880.553 907.858 874.662C911.295 873.19 914.486 871.717 917.676 870.244L927.004 875.644C923.813 877.117 920.376 878.835 917.186 880.062C903.195 885.953 888.958 890.862 874.477 895.035Z" fill="#949494"/>
<path d="M927.249 875.644L917.922 870.244C926.513 866.071 934.613 861.162 942.222 855.762L951.549 861.162C943.94 866.562 935.84 871.226 927.249 875.644Z" fill="#8F8F8F"/>
<path d="M951.304 861.162L941.976 855.762C949.585 850.362 956.704 844.226 963.331 837.353L972.658 842.753C966.276 849.38 959.158 855.517 951.304 861.162Z" fill="#8A8A8A"/>
<path d="M972.658 842.753L963.331 837.353C972.167 828.026 980.022 817.472 986.404 805.444C994.013 791.208 1001.87 776.726 1008.49 761.999C1030.83 713.399 1045.8 662.835 1053.17 610.063L1062.49 615.463C1054.89 668.235 1040.16 718.799 1017.82 767.399C1010.95 782.126 1003.34 796.608 995.731 810.844C989.349 822.626 981.495 833.426 972.658 842.753Z" fill="#858585"/>
<path d="M269.432 1032.49L260.105 1027.09C226.968 1008.19 196.287 985.853 168.059 959.835C141.059 935.044 117.005 907.553 95.6504 877.362C63.005 830.726 38.2141 779.917 22.0142 724.444C13.9142 696.708 7.77782 668.235 4.34146 639.272C2.37783 622.09 0.414201 605.154 0.414201 587.726C0.414201 573.735 -0.322158 559.745 0.16875 545.754C0.905113 531.272 2.62329 517.036 4.09601 502.554C8.51419 462.545 17.8414 423.272 31.096 385.227C55.8868 314.29 93.1959 250.718 142.778 194.509C147.687 188.863 152.841 183.463 157.996 178.063L167.323 183.463C162.168 188.863 157.259 194.263 152.105 199.909C102.523 256.118 64.9686 319.69 40.4232 390.627C27.1687 428.918 17.8414 467.945 13.4233 507.954C11.9505 522.436 9.98691 536.672 9.496 551.154C8.75964 565.145 9.49599 579.136 9.74145 593.126C9.74145 610.554 11.7051 627.49 13.6687 644.672C17.1051 673.635 22.996 701.863 31.3414 729.844C47.5414 785.317 72.3323 836.126 104.978 882.762C126.087 912.953 150.387 940.444 177.387 965.235C205.614 991.253 236.296 1013.59 269.432 1032.49Z" fill="#858585"/>
<path d="M167.814 183.218L158.487 177.818C183.278 151.8 209.787 128.727 238.505 108.109L247.832 113.509C219.359 134.127 192.605 157.2 167.814 183.218Z" fill="#8A8A8A"/>
<path d="M247.832 113.509L238.505 108.109C259.614 93.1362 281.459 79.3908 304.532 67.3635C309.195 64.909 313.859 62.4544 318.523 60.2454L327.85 65.6454C323.186 67.8545 318.523 70.309 313.859 72.7635C290.786 85.0362 268.941 98.5362 247.832 113.509Z" fill="#8F8F8F"/>
<path d="M328.095 65.6453L318.768 60.2453C346.259 46.7453 374.732 35.6999 403.695 27.109L413.022 32.509C383.813 41.0999 355.586 52.1453 328.095 65.6453Z" fill="#949494"/>
<path d="M413.023 32.5089L403.695 27.1089C421.859 21.7089 440.268 17.2907 458.677 13.8544C468.986 11.8908 482.732 8.69986 501.141 5.99986C508.504 5.01805 520.532 3.29987 534.768 1.82715L544.095 7.22713C529.613 8.4544 517.832 10.1726 510.468 11.3998C492.059 14.0998 478.068 17.2908 468.004 19.2544C449.35 22.9362 430.941 27.1089 413.023 32.5089Z" fill="#999999"/>
<path d="M544.095 7.47272L534.768 2.07273C544.831 1.09091 556.122 0.354545 567.904 0.109091C572.077 0.109091 576.25 -0.136363 580.668 0.109091C631.968 0.599999 672.222 11.1545 699.958 19.7454L709.286 25.1454C681.304 16.5545 641.049 6 589.995 5.50909C585.577 5.50909 581.404 5.50909 577.231 5.50909C565.45 5.75455 554.159 6.4909 544.095 7.47272Z" fill="#9E9E9E"/>
<path d="M709.531 25.1454L700.204 19.7454C703.886 20.9726 707.322 21.9545 710.759 22.9363C724.504 27.3544 738.004 32.2635 751.259 37.6635L760.586 43.0635C747.331 37.6635 733.831 32.7544 720.086 28.3363C716.65 27.3544 713.213 26.1272 709.531 25.1454Z" fill="#A3A3A3"/>
<path d="M760.586 43.0637L751.259 37.6637C770.65 45.7637 789.304 54.8455 807.468 65.1546L816.795 70.5546C798.386 60.2455 779.732 51.1637 760.586 43.0637Z" fill="#9E9E9E"/>
<path d="M1080.66 546.49C1081.89 562.69 1078.45 581.345 1075.99 599.999C1072.8 624.79 1068.63 649.09 1062.49 673.39C1048.5 728.372 1027.15 780.408 997.94 829.254C982.231 855.517 959.649 873.19 932.404 885.463C912.768 894.544 892.395 901.172 871.777 906.572C842.077 914.426 812.131 922.035 782.431 930.135C739.968 941.917 698.977 957.135 659.95 978.981C640.559 989.781 621.659 1001.81 603.25 1014.57C582.141 1029.3 561.032 1044.27 539.432 1058.51C518.568 1072.25 496.232 1083.3 472.177 1089.68C464.568 1091.64 456.714 1092.87 448.859 1093.61C448.859 1093.61 446.65 1093.85 443.705 1093.85C441.496 1093.85 438.796 1093.85 436.096 1093.85C410.814 1092.87 376.205 1078.39 374.487 1077.41C314.105 1052.13 312.632 1056.05 279.987 1038.63C242.678 1018.5 208.56 994.199 177.387 965.481C150.387 940.69 126.332 913.199 104.978 883.008C72.3324 836.372 47.5416 785.563 31.3416 730.09C23.2416 702.354 17.1052 673.881 13.6689 644.917C11.7052 627.736 9.74159 610.799 9.74159 593.372C9.74159 579.381 9.00523 565.39 9.49614 551.399C10.2325 536.918 11.9507 522.681 13.4234 508.199C17.8416 468.19 27.1688 428.918 40.4234 390.872C65.2142 319.936 102.523 256.363 152.105 200.154C198.496 147.627 252.25 105.409 313.368 73.2546C362.214 47.4819 413.759 29.8092 467.268 19.7456C477.577 17.782 491.323 14.5911 509.732 11.8911C522.495 9.92744 547.532 6.49108 576.741 5.75472C580.914 5.75472 585.086 5.50927 589.504 5.75472C647.432 6.24563 691.368 19.9911 719.35 28.5819C771.877 45.2728 820.231 69.5728 864.413 101.973C919.395 142.227 964.804 191.564 1000.64 250.227C1026.9 293.182 1046.79 339.572 1060.29 388.663C1068.14 417.381 1073.79 446.836 1076.24 476.781C1077.71 493.472 1079.19 510.163 1080.41 527.099C1081.39 532.499 1080.9 538.145 1080.66 546.49ZM1062.74 615.463C1068.39 586.008 1069.61 561.463 1069.61 543.79C1069.61 524.89 1068.39 509.181 1066.91 493.472C1065.69 477.027 1063.97 460.336 1061.27 444.136C1051.94 388.909 1034.76 336.627 1008.99 287.536C992.786 256.609 974.131 227.891 952.531 201.382C949.586 197.7 922.095 164.318 887.486 134.618C813.85 71.7819 692.35 14.5911 578.95 16.8002C525.686 17.782 458.677 32.0183 438.059 37.1728C424.559 40.6092 411.796 44.5365 411.796 44.5365C376.45 55.3365 342.332 69.8183 309.441 87.7364C241.205 125.291 183.032 175.609 134.923 238.2C90.2506 296.618 58.3415 361.172 39.1961 431.863C29.3779 468.681 23.487 505.745 21.0325 543.299C18.578 582.818 20.787 622.09 26.9234 660.872C32.8143 698.672 42.6325 735.245 56.6234 770.345C91.9688 859.199 147.441 931.608 222.305 988.308C234.823 997.881 247.587 1006.47 260.596 1014.57C270.659 1020.71 303.059 1040.34 353.868 1059.24C392.159 1073.48 414.741 1081.83 440.759 1081.09C444.441 1081.09 447.877 1080.84 451.559 1080.35C465.55 1078.88 477.823 1075.2 480.768 1074.46C506.05 1067.1 523.232 1055.56 538.45 1045.5C561.523 1030.28 584.35 1014.57 607.177 999.108C656.268 965.972 708.55 941.181 764.759 924.735C792.25 916.881 819.74 909.763 847.231 902.399C870.55 896.017 893.868 889.635 916.449 880.063C950.077 865.826 977.077 843.735 994.995 810.599C999.658 802.254 1006.78 790.472 1017.09 767.154C1024.45 750.217 1034.02 728.617 1043.35 698.426C1050.96 676.336 1058.08 648.108 1062.74 615.463Z" fill="#E1E1E1"/>
</svg>
